<svg aria-hidden="true" style="position:absolute;width:0;height:0;overflow:hidden" xmlns="http://www.w3.org/2000/svg">
  <defs>
    <symbol id="icon-facebook-1" viewBox="0 0 32 32">
      <path d="M20.48 7.04h3.2a.64.64 0 0 0 .64-.64V2.088a.639.639 0 0 0-.592-.638 74.58 74.58 0 0 0-4.438-.17c-3.93 0-6.49 2.355-6.49 6.636v4.244H8.32a.64.64 0 0 0-.64.64v4.48c0 .353.287.64.64.64h4.48v12.16c0 .353.287.64.64.64h4.48a.64.64 0 0 0 .64-.64V17.92h4.622a.64.64 0 0 0 .636-.57l.498-4.48a.64.64 0 0 0-.636-.71h-5.12v-3.2c0-1.06.86-1.92 1.92-1.92z"/>
    </symbol>
    <symbol id="icon-facebook-2" viewBox="0 0 32 32">
      <path d="M19.29 1.28c-2.093 0-3.901.638-5.17 1.899s-1.96 3.109-1.96 5.376v2.965H8.32a.64.64 0 0 0-.64.64v5.12c0 .353.287.64.64.64h3.84v12.16c0 .353.287.64.64.64h5.12a.64.64 0 0 0 .64-.64V17.92h4.48a.641.641 0 0 0 .635-.557v-.003l.64-5.12a.64.64 0 0 0-.635-.72h-5.12V8.96c0-.715.565-1.28 1.28-1.28h3.84a.64.64 0 0 0 .64-.64V2.141a.639.639 0 0 0-.553-.633h-.003c-.566-.075-2.607-.228-4.474-.228zm0 1.28c1.56 0 3.068.125 3.75.189V6.4h-3.2a2.57 2.57 0 0 0-2.56 2.56v3.2c0 .353.287.64.64.64h5.035l-.48 3.84H17.92a.64.64 0 0 0-.64.64v12.16h-3.84V17.28a.64.64 0 0 0-.64-.64H8.96V12.8h3.84a.64.64 0 0 0 .64-.64V8.555c0-2.013.589-3.482 1.582-4.469s2.43-1.526 4.267-1.526z"/>
    </symbol>
  <symbol id="icon-phone" viewBox="0 0 32 32">
<path d="M22.75 0h-13.5c-1.519 0-2.75 1.231-2.75 2.75v0 26.5c0 1.519 1.231 2.75 2.75 2.75v0h13.5c1.519 0 2.75-1.231 2.75-2.75v0-26.5c0-1.519-1.231-2.75-2.75-2.75v0zM8 5.673h16v19.223h-16zM9.25 1.5h13.5c0.69 0 1.25 0.56 1.25 1.25v0 1.423h-16v-1.423c0-0.69 0.56-1.25 1.25-1.25v0zM22.75 30.5h-13.5c-0.69 0-1.25-0.56-1.25-1.25v0-2.855h16v2.855c0 0.69-0.56 1.25-1.25 1.25v0z"></path>
<path d="M17.5 28.477c0 0.828-0.672 1.5-1.5 1.5s-1.5-0.672-1.5-1.5c0-0.828 0.672-1.5 1.5-1.5s1.5 0.672 1.5 1.5z"></path>
<path d="M14.033 3.555h3.937c0.414 0 0.75-0.336 0.75-0.75s-0.336-0.75-0.75-0.75v0h-3.938c-0.414 0-0.75 0.336-0.75 0.75s0.336 0.75 0.75 0.75v0z"></path>
</symbol>
       
  </defs>
</svg>
